<svg width="177" height="50" viewBox="0 0 177 50" fill="none" xmlns="http://www.w3.org/2000/svg">
<rect width="50" height="50" rx="7" fill="#2CB1BC"/>
<path d="M20.7021 28.0537V19.2031H23.2686V28.0625C23.2686 28.9121 23.1045 29.6475 22.7764 30.2686C22.4541 30.8838 22.0146 31.3555 21.458 31.6836C20.9014 32.0117 20.2744 32.1758 19.5771 32.1758C18.8623 32.1758 18.2236 32.0352 17.6611 31.7539C17.1045 31.4668 16.665 31.0332 16.3428 30.4531C16.0205 29.8672 15.8594 29.1231 15.8594 28.2207H18.4434C18.4434 28.6777 18.4902 29.0381 18.584 29.3018C18.6777 29.5654 18.8096 29.7559 18.9795 29.8731C19.1553 29.9902 19.3545 30.0488 19.5771 30.0488C19.8174 30.0488 20.0195 29.9697 20.1836 29.8115C20.3535 29.6533 20.4824 29.4277 20.5703 29.1348C20.6582 28.836 20.7021 28.4756 20.7021 28.0537ZM31.416 27.7373H33.9736C33.9385 28.6983 33.7451 29.5098 33.3936 30.1719C33.042 30.8281 32.541 31.3262 31.8906 31.666C31.2461 32.0059 30.4668 32.1758 29.5527 32.1758C28.8438 32.1758 28.2139 32.0586 27.6631 31.8242C27.1123 31.584 26.6436 31.2324 26.2568 30.7695C25.8701 30.3067 25.5771 29.7354 25.3779 29.0557C25.1846 28.3701 25.0879 27.582 25.0879 26.6914V24.5205C25.0879 23.6299 25.1904 22.8418 25.3955 22.1563C25.6064 21.4707 25.9053 20.8965 26.292 20.4336C26.6846 19.9649 27.1562 19.6133 27.707 19.3789C28.2637 19.1387 28.8906 19.0186 29.5879 19.0186C30.5195 19.0186 31.2988 19.1944 31.9258 19.5459C32.5527 19.8975 33.0361 20.4102 33.376 21.084C33.7217 21.752 33.9297 22.5694 34 23.5361H31.4336C31.416 22.9268 31.3457 22.4492 31.2227 22.1035C31.1055 21.752 30.918 21.5059 30.6602 21.3652C30.4023 21.2188 30.0449 21.1455 29.5879 21.1455C29.248 21.1455 28.9551 21.207 28.709 21.3301C28.4629 21.4473 28.2607 21.6377 28.1025 21.9014C27.9443 22.1651 27.8271 22.5108 27.751 22.9385C27.6807 23.3662 27.6455 23.8877 27.6455 24.5029V26.6914C27.6455 27.2949 27.6777 27.8106 27.7422 28.2383C27.8066 28.6602 27.9092 29.0059 28.0498 29.2754C28.1904 29.5449 28.3809 29.7412 28.6211 29.8643C28.8672 29.9873 29.1777 30.0488 29.5527 30.0488C29.9863 30.0488 30.335 29.9844 30.5986 29.8555C30.8682 29.7266 31.0674 29.4951 31.1963 29.1611C31.3252 28.8272 31.3984 28.3526 31.416 27.7373Z" fill="white"/>
<path d="M71.8652 29.4998V14.7488H76.1426V29.5144C76.1426 30.9304 75.8691 32.156 75.3223 33.1912C74.7852 34.2166 74.0527 35.0027 73.125 35.5496C72.1973 36.0965 71.1523 36.3699 69.9902 36.3699C68.7988 36.3699 67.7344 36.1355 66.7969 35.6668C65.8691 35.1882 65.1367 34.4656 64.5996 33.4988C64.0625 32.5222 63.7939 31.282 63.7939 29.7781H68.1006C68.1006 30.5398 68.1787 31.1404 68.335 31.5798C68.4912 32.0193 68.7109 32.3367 68.9941 32.532C69.2871 32.7273 69.6191 32.825 69.9902 32.825C70.3906 32.825 70.7275 32.6931 71.001 32.4295C71.2842 32.1658 71.499 31.7898 71.6455 31.3015C71.792 30.8035 71.8652 30.2029 71.8652 29.4998ZM78.8818 28.6941V27.6248C78.8818 26.3845 79.0283 25.2859 79.3213 24.3289C79.624 23.3718 80.0537 22.5711 80.6104 21.9265C81.167 21.2722 81.8359 20.7791 82.6172 20.447C83.4082 20.1052 84.292 19.9343 85.2686 19.9343C86.2549 19.9343 87.1387 20.1052 87.9199 20.447C88.7109 20.7791 89.3848 21.2722 89.9414 21.9265C90.5078 22.5711 90.9424 23.3718 91.2451 24.3289C91.5479 25.2859 91.6992 26.3845 91.6992 27.6248V28.6941C91.6992 29.9246 91.5479 31.0183 91.2451 31.9754C90.9424 32.9324 90.5078 33.7381 89.9414 34.3923C89.3848 35.0466 88.7158 35.5398 87.9346 35.8718C87.1533 36.2039 86.2744 36.3699 85.2979 36.3699C84.3213 36.3699 83.4375 36.2039 82.6465 35.8718C81.8652 35.5398 81.1914 35.0466 80.625 34.3923C80.0586 33.7381 79.624 32.9324 79.3213 31.9754C79.0283 31.0183 78.8818 29.9246 78.8818 28.6941ZM82.9834 27.6248V28.6941C82.9834 29.4265 83.0322 30.0613 83.1299 30.5984C83.2373 31.1355 83.3887 31.5798 83.584 31.9314C83.7891 32.283 84.0332 32.5418 84.3164 32.7078C84.5996 32.8738 84.9268 32.9568 85.2979 32.9568C85.6689 32.9568 86.001 32.8738 86.2939 32.7078C86.5869 32.5418 86.8262 32.283 87.0117 31.9314C87.207 31.5798 87.3486 31.1355 87.4365 30.5984C87.5342 30.0613 87.583 29.4265 87.583 28.6941V27.6248C87.583 26.9119 87.5293 26.2869 87.4219 25.7498C87.3145 25.2029 87.1631 24.7586 86.9678 24.4168C86.7725 24.0652 86.5283 23.8015 86.2354 23.6257C85.9521 23.4402 85.6299 23.3474 85.2686 23.3474C84.9072 23.3474 84.585 23.4402 84.3018 23.6257C84.0283 23.8015 83.7891 24.0652 83.584 24.4168C83.3887 24.7586 83.2373 25.2029 83.1299 25.7498C83.0322 26.2869 82.9834 26.9119 82.9834 27.6248ZM94.3066 13.5769H98.3936V32.4002L98.1006 36.0769H94.3066V13.5769ZM106.626 27.6248V28.6648C106.626 29.9539 106.523 31.0769 106.318 32.034C106.123 32.991 105.815 33.7918 105.396 34.4363C104.985 35.0808 104.458 35.5642 103.813 35.8865C103.169 36.2088 102.407 36.3699 101.528 36.3699C100.737 36.3699 100.059 36.1843 99.4922 35.8132C98.9258 35.4324 98.4473 34.9099 98.0566 34.2459C97.6758 33.572 97.3633 32.7859 97.1191 31.8875C96.8848 30.9793 96.7139 29.9881 96.6064 28.9138V27.3757C96.7041 26.3211 96.8701 25.3396 97.1045 24.4314C97.3486 23.5232 97.6611 22.7371 98.042 22.073C98.4229 21.3992 98.8965 20.8767 99.4629 20.5056C100.039 20.1248 100.718 19.9343 101.499 19.9343C102.397 19.9343 103.169 20.1004 103.813 20.4324C104.458 20.7547 104.985 21.2381 105.396 21.8826C105.815 22.5271 106.123 23.3328 106.318 24.2996C106.523 25.2566 106.626 26.365 106.626 27.6248ZM102.539 28.6648V27.6248C102.539 26.8923 102.51 26.2625 102.451 25.7351C102.393 25.2078 102.285 24.7683 102.129 24.4168C101.973 24.0652 101.748 23.8015 101.455 23.6257C101.172 23.45 100.796 23.3621 100.327 23.3621C99.9072 23.3621 99.5557 23.4451 99.2725 23.6111C98.9893 23.7673 98.7451 24.0017 98.54 24.3142C98.3447 24.617 98.1982 24.9783 98.1006 25.3982C98.0127 25.8084 97.9639 26.2625 97.9541 26.7605V29.5291C97.9639 30.2029 98.0469 30.7986 98.2031 31.3162C98.3594 31.8338 98.6084 32.2341 98.9502 32.5173C99.3018 32.8006 99.7705 32.9422 100.356 32.9422C100.815 32.9422 101.187 32.864 101.47 32.7078C101.753 32.5515 101.973 32.3025 102.129 31.9607C102.295 31.6189 102.402 31.1795 102.451 30.6423C102.51 30.0955 102.539 29.4363 102.539 28.6648ZM119.517 28.9724H123.779C123.721 30.574 123.398 31.9265 122.812 33.03C122.227 34.1238 121.392 34.9539 120.308 35.5203C119.233 36.0867 117.935 36.3699 116.411 36.3699C115.229 36.3699 114.18 36.1746 113.262 35.784C112.344 35.3836 111.562 34.7976 110.918 34.0261C110.273 33.2547 109.785 32.3025 109.453 31.1697C109.131 30.0271 108.97 28.7136 108.97 27.2293V23.6111C108.97 22.1267 109.141 20.8132 109.482 19.6707C109.834 18.5281 110.332 17.5711 110.977 16.7996C111.631 16.0183 112.417 15.4324 113.335 15.0418C114.263 14.6414 115.308 14.4412 116.47 14.4412C118.022 14.4412 119.321 14.7341 120.366 15.3201C121.411 15.906 122.217 16.7605 122.783 17.8836C123.359 18.9968 123.706 20.3591 123.823 21.9705H119.546C119.517 20.9548 119.399 20.159 119.194 19.5828C118.999 18.9968 118.687 18.5867 118.257 18.3523C117.827 18.1082 117.231 17.9861 116.47 17.9861C115.903 17.9861 115.415 18.0886 115.005 18.2937C114.595 18.489 114.258 18.8064 113.994 19.2459C113.73 19.6853 113.535 20.2615 113.408 20.9744C113.291 21.6873 113.232 22.5564 113.232 23.5818V27.2293C113.232 28.2351 113.286 29.0945 113.394 29.8074C113.501 30.5105 113.672 31.0867 113.906 31.5359C114.141 31.9851 114.458 32.3123 114.858 32.5173C115.269 32.7224 115.786 32.825 116.411 32.825C117.134 32.825 117.715 32.7175 118.154 32.5027C118.604 32.2879 118.936 31.9021 119.15 31.3455C119.365 30.7888 119.487 29.9978 119.517 28.9724ZM130.562 13.5769V36.0769H126.445V13.5769H130.562ZM133.345 28.6941V27.6248C133.345 26.3845 133.491 25.2859 133.784 24.3289C134.087 23.3718 134.517 22.5711 135.073 21.9265C135.63 21.2722 136.299 20.7791 137.08 20.447C137.871 20.1052 138.755 19.9343 139.731 19.9343C140.718 19.9343 141.602 20.1052 142.383 20.447C143.174 20.7791 143.848 21.2722 144.404 21.9265C144.971 22.5711 145.405 23.3718 145.708 24.3289C146.011 25.2859 146.162 26.3845 146.162 27.6248V28.6941C146.162 29.9246 146.011 31.0183 145.708 31.9754C145.405 32.9324 144.971 33.7381 144.404 34.3923C143.848 35.0466 143.179 35.5398 142.397 35.8718C141.616 36.2039 140.737 36.3699 139.761 36.3699C138.784 36.3699 137.9 36.2039 137.109 35.8718C136.328 35.5398 135.654 35.0466 135.088 34.3923C134.521 33.7381 134.087 32.9324 133.784 31.9754C133.491 31.0183 133.345 29.9246 133.345 28.6941ZM137.446 27.6248V28.6941C137.446 29.4265 137.495 30.0613 137.593 30.5984C137.7 31.1355 137.852 31.5798 138.047 31.9314C138.252 32.283 138.496 32.5418 138.779 32.7078C139.062 32.8738 139.39 32.9568 139.761 32.9568C140.132 32.9568 140.464 32.8738 140.757 32.7078C141.05 32.5418 141.289 32.283 141.475 31.9314C141.67 31.5798 141.812 31.1355 141.899 30.5984C141.997 30.0613 142.046 29.4265 142.046 28.6941V27.6248C142.046 26.9119 141.992 26.2869 141.885 25.7498C141.777 25.2029 141.626 24.7586 141.431 24.4168C141.235 24.0652 140.991 23.8015 140.698 23.6257C140.415 23.4402 140.093 23.3474 139.731 23.3474C139.37 23.3474 139.048 23.4402 138.765 23.6257C138.491 23.8015 138.252 24.0652 138.047 24.4168C137.852 24.7586 137.7 25.2029 137.593 25.7498C137.495 26.2869 137.446 26.9119 137.446 27.6248ZM156.416 32.2683V20.2273H160.532V36.0769H156.665L156.416 32.2683ZM156.885 29.0017L158.027 28.9724C158.027 30.0369 157.925 31.0232 157.72 31.9314C157.515 32.8298 157.207 33.6111 156.797 34.2752C156.387 34.9392 155.874 35.4568 155.259 35.8279C154.644 36.1892 153.916 36.3699 153.076 36.3699C152.432 36.3699 151.836 36.2625 151.289 36.0476C150.752 35.823 150.288 35.4763 149.897 35.0076C149.507 34.5291 149.199 33.9187 148.975 33.1765C148.76 32.4246 148.652 31.5213 148.652 30.4666V20.2273H152.769V30.5105C152.769 30.9402 152.808 31.3113 152.886 31.6238C152.964 31.9265 153.071 32.1756 153.208 32.3709C153.345 32.5662 153.506 32.7078 153.691 32.7957C153.877 32.8738 154.087 32.9129 154.321 32.9129C154.966 32.9129 155.474 32.7468 155.845 32.4148C156.226 32.073 156.494 31.6091 156.65 31.0232C156.807 30.4275 156.885 29.7537 156.885 29.0017ZM171.196 32.5759V13.5769H175.312V36.0769L171.592 36.0916L171.196 32.5759ZM162.979 28.7088V27.6541C162.979 26.365 163.086 25.2371 163.301 24.2703C163.525 23.3035 163.857 22.4978 164.297 21.8533C164.736 21.2088 165.273 20.7302 165.908 20.4177C166.553 20.0955 167.29 19.9343 168.12 19.9343C168.872 19.9343 169.531 20.1248 170.098 20.5056C170.674 20.8767 171.162 21.3992 171.562 22.073C171.963 22.7468 172.285 23.5427 172.529 24.4607C172.773 25.3787 172.944 26.3845 173.042 27.4783V29.0017C172.925 30.0369 172.744 31.0037 172.5 31.9021C172.266 32.8006 171.943 33.5818 171.533 34.2459C171.133 34.9099 170.649 35.4324 170.083 35.8132C169.517 36.1843 168.857 36.3699 168.105 36.3699C167.275 36.3699 166.538 36.2039 165.894 35.8718C165.259 35.5398 164.722 35.0515 164.282 34.407C163.853 33.7527 163.525 32.9519 163.301 32.0047C163.086 31.0476 162.979 29.949 162.979 28.7088ZM167.08 27.6541V28.7088C167.08 29.4509 167.114 30.0906 167.183 30.6277C167.261 31.155 167.383 31.5896 167.549 31.9314C167.725 32.2634 167.954 32.5125 168.237 32.6785C168.521 32.8347 168.872 32.9129 169.292 32.9129C169.839 32.9129 170.283 32.7761 170.625 32.5027C170.967 32.2195 171.221 31.8338 171.387 31.3455C171.562 30.8474 171.66 30.2761 171.68 29.6316V26.8631C171.66 26.3259 171.597 25.8425 171.489 25.4129C171.382 24.9832 171.23 24.617 171.035 24.3142C170.84 24.0115 170.596 23.7771 170.303 23.6111C170.02 23.4451 169.688 23.3621 169.307 23.3621C168.896 23.3621 168.545 23.4451 168.252 23.6111C167.969 23.7771 167.744 24.0359 167.578 24.3875C167.412 24.7293 167.285 25.1736 167.197 25.7205C167.119 26.2576 167.08 26.9021 167.08 27.6541Z" fill="#2CB1BC"/>
</svg>
